<svg xmlns="http://www.w3.org/2000/svg" viewBox="0 0 657.51 300.81"><defs><style>.cls-1{fill:#00b658;}</style></defs><g id="Layer_2" data-name="Layer 2"><g id="Layer_1-2" data-name="Layer 1"><path class="cls-1" d="M621.72,51.92A145.38,145.38,0,0,0,557.83,9.43C529.71.05,501.15-2.43,471.82,3c-23.2,4.31-43.27,15.52-62.57,28-8.6,5.56-15.6,13.84-22.65,21.51-13.9,15.09-27.42,30.52-40.91,46-8.48,9.71-16.65,19.7-24.92,29.59q-21.33,25.53-42.63,51.1c-9.57,11.41-19.35,22.65-28.84,34.12-13.91,16.81-29.61,31.42-50,40-35.79,15-71.18,15.64-105.87-3.72a111.41,111.41,0,0,1-41-39.51c-13.56-22-19.52-46.09-16.21-71.63,4.75-36.72,22.9-65.5,54.92-84.76,26.33-15.83,54.84-19.91,84.59-13.1,22.61,5.18,42.5,15.86,58.72,32.88,9.95,10.44,20.25,20.56,30.19,31,6.94,7.31,13.54,14.94,20.08,22.19l7.1-5.08.62-.57,15-22.31a23.13,23.13,0,0,0-1.5-2.26c-7.67-9.33-14.94-19-23.15-27.84-10.21-11-20.43-22.22-32-31.66A160.88,160.88,0,0,0,177.57,2.82C142.66-3.63,109.46.87,78.13,17.42a141.81,141.81,0,0,0-58.36,57A150.08,150.08,0,0,0,.35,139.66C-1.08,163,1.73,186,11.52,207.42a265.18,265.18,0,0,0,22.14,39.34c5.48,8,13.6,14.27,20.94,20.87a116.74,116.74,0,0,0,37.05,22.55A154.71,154.71,0,0,0,133.71,300c22.28,1.79,44.25.87,65.58-5.95,29.44-9.4,54.09-26.25,73.89-50,16.07-19.28,31.94-38.74,48-58,3.74-4.51,7.89-8.67,11.85-13l4-4.94c3.16-4.18,6.17-8.48,9.39-12.6,1.07-1.37,2.17-2.73,3.3-4Q368.4,129.49,387.5,108c10.88-12.26,21.59-24.72,33.15-36.31A116.52,116.52,0,0,1,473,41.05c32.24-8.78,62.92-3.81,91.63,12.66,18.92,10.86,34.28,25.84,43.83,45.64,16.86,35,16.54,70-2.88,104-7.63,13.35-17,25.22-29.65,34.92a142.56,142.56,0,0,1-28,17.28c-20.29,9.15-41.81,10.12-63.59,7.19-15.56-2.09-29.92-8.15-42.74-16.67-10.36-6.87-19.7-15.57-28.46-24.48-11.47-11.67-21.91-24.34-32.82-36.55-3.58-4-7.24-7.94-11.06-12.13l-23.76,27.44c7.86,9.62,15.44,19.19,23.34,28.5,11.65,13.74,23.43,27.3,38,38.28C430.33,284.9,456,297.18,485.8,299.9c17.32,1.57,34.51,1.29,51.58-2.37a152.67,152.67,0,0,0,68-33.25A141,141,0,0,0,637,225.73c18.64-33.19,24.8-68.53,17.66-105.89A142.07,142.07,0,0,0,621.72,51.92Z"/><path class="cls-1" d="M203.64,172a3.75,3.75,0,0,1,1.14-.14l.42,0c.57,0,1.17.15,1.75.25,3.41.55,6.8,1.25,10.74,2,2.28-8.2,4.48-16.12,7-25-14.27-1.54-20.32-10.83-22.76-24.08,2.94-3.75,6.29-8,9.69-12.39-2.36-2.51-4.48-4.84-6.68-7.11-3.06-3.16-6.18-6.28-9.27-9.42l-.42-.06-8.36,9.55L166.23,95c-.58-6.12-1.07-11.31-1.54-16.34h-27c-.66,5.6-1.25,10.67-1.84,15.8l-21.11,10-11.81-7.87L88,110.93l9.88,13.57c-1.19,13.32-6.78,22.05-21.24,22.94l5.4,22.73,14.06-.94,10.06,16.22c-2.24,4.65-4.23,8.79-6.36,13.24L122.5,213,136,202.13,159.67,204l8.31,13,25.78-11.44c-1.48-4.83-2.84-9.23-4.37-14.2l9.76-11.47,3-5C202.1,173.06,202.72,172.25,203.64,172ZM149,181.12c-16.42.89-33.12-16.51-32.33-33,.86-17.78,15.66-31.68,34.18-31.24s32.44,14.78,32.31,32.48C183.06,166.42,166,182.29,149,181.12Z"/><path class="cls-1" d="M541.58,109l-10.51,9.93,14.59,18.62,5.76,6.54,3.55,3.8,3.72,4c-9.41,10.54-18.06,20.21-26.61,29.77l10.21,11.47,37.54-41.59Z"/><path class="cls-1" d="M487.28,209.34c12.29-39.34,24.56-78.66,36.93-118.27l-11.33-2.82c-12.72,40-25.34,79.67-38.16,120Z"/><path class="cls-1" d="M453.73,111.58l-37.43,39q19,20.61,39.15,42.56c3.45-3.74,6.87-7.43,10.38-11.22-5.2-5.61-9.93-10.66-14.62-15.77s-9.34-10.27-14.94-16.43l28.52-25.63C460.29,119,457.31,115.63,453.73,111.58Z"/></g></g></svg>